{
 "cells": [
  {
   "cell_type": "code",
   "execution_count": 1,
   "id": "8045c3a0-a24e-4b7b-8375-a0bb2697d4e5",
   "metadata": {
    "scrolled": true
   },
   "outputs": [
    {
     "name": "stdout",
     "output_type": "stream",
     "text": [
      "Requirement already satisfied: selenium in c:\\users\\administrator\\appdata\\local\\programs\\python\\python313\\lib\\site-packages (4.31.0)\n",
      "Requirement already satisfied: beautifulsoup4 in c:\\users\\administrator\\appdata\\local\\programs\\python\\python313\\lib\\site-packages (4.13.3)\n",
      "Requirement already satisfied: urllib3<3,>=1.26 in c:\\users\\administrator\\appdata\\local\\programs\\python\\python313\\lib\\site-packages (from urllib3[socks]<3,>=1.26->selenium) (2.3.0)\n",
      "Requirement already satisfied: trio~=0.17 in c:\\users\\administrator\\appdata\\local\\programs\\python\\python313\\lib\\site-packages (from selenium) (0.29.0)\n",
      "Requirement already satisfied: trio-websocket~=0.9 in c:\\users\\administrator\\appdata\\local\\programs\\python\\python313\\lib\\site-packages (from selenium) (0.12.2)\n",
      "Requirement already satisfied: certifi>=2021.10.8 in c:\\users\\administrator\\appdata\\local\\programs\\python\\python313\\lib\\site-packages (from selenium) (2025.1.31)\n",
      "Requirement already satisfied: typing_extensions~=4.9 in c:\\users\\administrator\\appdata\\local\\programs\\python\\python313\\lib\\site-packages (from selenium) (4.13.1)\n",
      "Requirement already satisfied: websocket-client~=1.8 in c:\\users\\administrator\\appdata\\local\\programs\\python\\python313\\lib\\site-packages (from selenium) (1.8.0)\n",
      "Requirement already satisfied: soupsieve>1.2 in c:\\users\\administrator\\appdata\\local\\programs\\python\\python313\\lib\\site-packages (from beautifulsoup4) (2.6)\n",
      "Requirement already satisfied: attrs>=23.2.0 in c:\\users\\administrator\\appdata\\local\\programs\\python\\python313\\lib\\site-packages (from trio~=0.17->selenium) (25.3.0)\n",
      "Requirement already satisfied: sortedcontainers in c:\\users\\administrator\\appdata\\local\\programs\\python\\python313\\lib\\site-packages (from trio~=0.17->selenium) (2.4.0)\n",
      "Requirement already satisfied: idna in c:\\users\\administrator\\appdata\\local\\programs\\python\\python313\\lib\\site-packages (from trio~=0.17->selenium) (3.10)\n",
      "Requirement already satisfied: outcome in c:\\users\\administrator\\appdata\\local\\programs\\python\\python313\\lib\\site-packages (from trio~=0.17->selenium) (1.3.0.post0)\n",
      "Requirement already satisfied: sniffio>=1.3.0 in c:\\users\\administrator\\appdata\\local\\programs\\python\\python313\\lib\\site-packages (from trio~=0.17->selenium) (1.3.1)\n",
      "Requirement already satisfied: cffi>=1.14 in c:\\users\\administrator\\appdata\\local\\programs\\python\\python313\\lib\\site-packages (from trio~=0.17->selenium) (1.17.1)\n",
      "Requirement already satisfied: wsproto>=0.14 in c:\\users\\administrator\\appdata\\local\\programs\\python\\python313\\lib\\site-packages (from trio-websocket~=0.9->selenium) (1.2.0)\n",
      "Requirement already satisfied: pysocks!=1.5.7,<2.0,>=1.5.6 in c:\\users\\administrator\\appdata\\local\\programs\\python\\python313\\lib\\site-packages (from urllib3[socks]<3,>=1.26->selenium) (1.7.1)\n",
      "Requirement already satisfied: pycparser in c:\\users\\administrator\\appdata\\local\\programs\\python\\python313\\lib\\site-packages (from cffi>=1.14->trio~=0.17->selenium) (2.22)\n",
      "Requirement already satisfied: h11<1,>=0.9.0 in c:\\users\\administrator\\appdata\\local\\programs\\python\\python313\\lib\\site-packages (from wsproto>=0.14->trio-websocket~=0.9->selenium) (0.14.0)\n"
     ]
    }
   ],
   "source": [
    "!pip install selenium beautifulsoup4"
   ]
  },
  {
   "cell_type": "code",
   "execution_count": 1,
   "id": "0fcf5b1e-247a-4e90-8155-32c51f311f69",
   "metadata": {
    "scrolled": true
   },
   "outputs": [
    {
     "name": "stdout",
     "output_type": "stream",
     "text": [
      "Requirement already satisfied: openpyxl in c:\\users\\administrator\\appdata\\local\\programs\\python\\python313\\lib\\site-packages (3.1.5)\n",
      "Requirement already satisfied: et-xmlfile in c:\\users\\administrator\\appdata\\local\\programs\\python\\python313\\lib\\site-packages (from openpyxl) (2.0.0)\n"
     ]
    }
   ],
   "source": [
    "!pip install openpyxl"
   ]
  },
  {
   "cell_type": "code",
   "execution_count": null,
   "id": "3667552a-6f2d-41e1-92e7-05242d682848",
   "metadata": {},
   "outputs": [
    {
     "name": "stdout",
     "output_type": "stream",
     "text": [
      "Collecting webdriver-manager\n",
      "  Downloading webdriver_manager-4.0.2-py2.py3-none-any.whl.metadata (12 kB)\n",
      "Requirement already satisfied: requests in c:\\users\\administrator\\appdata\\local\\programs\\python\\python313\\lib\\site-packages (from webdriver-manager) (2.32.3)\n",
      "Collecting python-dotenv (from webdriver-manager)\n",
      "  Downloading python_dotenv-1.1.0-py3-none-any.whl.metadata (24 kB)\n",
      "Requirement already satisfied: packaging in c:\\users\\administrator\\appdata\\local\\programs\\python\\python313\\lib\\site-packages (from webdriver-manager) (24.2)\n",
      "Requirement already satisfied: charset-normalizer<4,>=2 in c:\\users\\administrator\\appdata\\local\\programs\\python\\python313\\lib\\site-packages (from requests->webdriver-manager) (3.4.1)\n",
      "Requirement already satisfied: idna<4,>=2.5 in c:\\users\\administrator\\appdata\\local\\programs\\python\\python313\\lib\\site-packages (from requests->webdriver-manager) (3.10)\n",
      "Requirement already satisfied: urllib3<3,>=1.21.1 in c:\\users\\administrator\\appdata\\local\\programs\\python\\python313\\lib\\site-packages (from requests->webdriver-manager) (2.3.0)\n",
      "Requirement already satisfied: certifi>=2017.4.17 in c:\\users\\administrator\\appdata\\local\\programs\\python\\python313\\lib\\site-packages (from requests->webdriver-manager) (2025.1.31)\n",
      "Downloading webdriver_manager-4.0.2-py2.py3-none-any.whl (27 kB)\n",
      "Downloading python_dotenv-1.1.0-py3-none-any.whl (20 kB)\n",
      "Installing collected packages: python-dotenv, webdriver-manager\n",
      "Successfully installed python-dotenv-1.1.0 webdriver-manager-4.0.2\n",
      "Note: you may need to restart the kernel to use updated packages.\n"
     ]
    }
   ],
   "source": [
    "!pip install webdriver-manager"
   ]
  },
  {
   "cell_type": "code",
   "execution_count": 1,
   "id": "7f836207-320d-4035-a7e6-1dcd41755b81",
   "metadata": {
    "scrolled": true
   },
   "outputs": [
    {
     "name": "stdout",
     "output_type": "stream",
     "text": [
      "Collecting selenium-wire\n",
      "  Downloading selenium_wire-5.1.0-py3-none-any.whl.metadata (49 kB)\n",
      "Collecting blinker>=1.4 (from selenium-wire)\n",
      "  Downloading blinker-1.9.0-py3-none-any.whl.metadata (1.6 kB)\n",
      "Collecting brotli>=1.0.9 (from selenium-wire)\n",
      "  Downloading Brotli-1.1.0-cp313-cp313-win_amd64.whl.metadata (5.6 kB)\n",
      "Requirement already satisfied: certifi>=2019.9.11 in c:\\users\\administrator\\appdata\\local\\programs\\python\\python313\\lib\\site-packages (from selenium-wire) (2025.1.31)\n",
      "Collecting kaitaistruct>=0.7 (from selenium-wire)\n",
      "  Downloading kaitaistruct-0.10-py2.py3-none-any.whl.metadata (2.5 kB)\n",
      "Collecting pyasn1>=0.3.1 (from selenium-wire)\n",
      "  Downloading pyasn1-0.6.1-py3-none-any.whl.metadata (8.4 kB)\n",
      "Collecting pyOpenSSL>=22.0.0 (from selenium-wire)\n",
      "  Downloading pyOpenSSL-25.0.0-py3-none-any.whl.metadata (16 kB)\n",
      "Requirement already satisfied: pyparsing>=2.4.2 in c:\\users\\administrator\\appdata\\local\\programs\\python\\python313\\lib\\site-packages (from selenium-wire) (3.2.3)\n",
      "Requirement already satisfied: pysocks>=1.7.1 in c:\\users\\administrator\\appdata\\local\\programs\\python\\python313\\lib\\site-packages (from selenium-wire) (1.7.1)\n",
      "Requirement already satisfied: selenium>=4.0.0 in c:\\users\\administrator\\appdata\\local\\programs\\python\\python313\\lib\\site-packages (from selenium-wire) (4.31.0)\n",
      "Requirement already satisfied: wsproto>=0.14 in c:\\users\\administrator\\appdata\\local\\programs\\python\\python313\\lib\\site-packages (from selenium-wire) (1.2.0)\n",
      "Collecting zstandard>=0.14.1 (from selenium-wire)\n",
      "  Downloading zstandard-0.23.0-cp313-cp313-win_amd64.whl.metadata (3.0 kB)\n",
      "Collecting h2>=4.0 (from selenium-wire)\n",
      "  Downloading h2-4.2.0-py3-none-any.whl.metadata (5.1 kB)\n",
      "Collecting hyperframe>=6.0 (from selenium-wire)\n",
      "  Downloading hyperframe-6.1.0-py3-none-any.whl.metadata (4.3 kB)\n",
      "Collecting pydivert>=2.0.3 (from selenium-wire)\n",
      "  Downloading pydivert-2.1.0-py2.py3-none-any.whl.metadata (8.0 kB)\n",
      "Collecting hpack<5,>=4.1 (from h2>=4.0->selenium-wire)\n",
      "  Downloading hpack-4.1.0-py3-none-any.whl.metadata (4.6 kB)\n",
      "Collecting cryptography<45,>=41.0.5 (from pyOpenSSL>=22.0.0->selenium-wire)\n",
      "  Downloading cryptography-44.0.2-cp39-abi3-win_amd64.whl.metadata (5.7 kB)\n",
      "Requirement already satisfied: urllib3<3,>=1.26 in c:\\users\\administrator\\appdata\\local\\programs\\python\\python313\\lib\\site-packages (from urllib3[socks]<3,>=1.26->selenium>=4.0.0->selenium-wire) (2.3.0)\n",
      "Requirement already satisfied: trio~=0.17 in c:\\users\\administrator\\appdata\\local\\programs\\python\\python313\\lib\\site-packages (from selenium>=4.0.0->selenium-wire) (0.29.0)\n",
      "Requirement already satisfied: trio-websocket~=0.9 in c:\\users\\administrator\\appdata\\local\\programs\\python\\python313\\lib\\site-packages (from selenium>=4.0.0->selenium-wire) (0.12.2)\n",
      "Requirement already satisfied: typing_extensions~=4.9 in c:\\users\\administrator\\appdata\\local\\programs\\python\\python313\\lib\\site-packages (from selenium>=4.0.0->selenium-wire) (4.13.1)\n",
      "Requirement already satisfied: websocket-client~=1.8 in c:\\users\\administrator\\appdata\\local\\programs\\python\\python313\\lib\\site-packages (from selenium>=4.0.0->selenium-wire) (1.8.0)\n",
      "Requirement already satisfied: h11<1,>=0.9.0 in c:\\users\\administrator\\appdata\\local\\programs\\python\\python313\\lib\\site-packages (from wsproto>=0.14->selenium-wire) (0.14.0)\n",
      "Requirement already satisfied: cffi>=1.12 in c:\\users\\administrator\\appdata\\local\\programs\\python\\python313\\lib\\site-packages (from cryptography<45,>=41.0.5->pyOpenSSL>=22.0.0->selenium-wire) (1.17.1)\n",
      "Requirement already satisfied: attrs>=23.2.0 in c:\\users\\administrator\\appdata\\local\\programs\\python\\python313\\lib\\site-packages (from trio~=0.17->selenium>=4.0.0->selenium-wire) (25.3.0)\n",
      "Requirement already satisfied: sortedcontainers in c:\\users\\administrator\\appdata\\local\\programs\\python\\python313\\lib\\site-packages (from trio~=0.17->selenium>=4.0.0->selenium-wire) (2.4.0)\n",
      "Requirement already satisfied: idna in c:\\users\\administrator\\appdata\\local\\programs\\python\\python313\\lib\\site-packages (from trio~=0.17->selenium>=4.0.0->selenium-wire) (3.10)\n",
      "Requirement already satisfied: outcome in c:\\users\\administrator\\appdata\\local\\programs\\python\\python313\\lib\\site-packages (from trio~=0.17->selenium>=4.0.0->selenium-wire) (1.3.0.post0)\n",
      "Requirement already satisfied: sniffio>=1.3.0 in c:\\users\\administrator\\appdata\\local\\programs\\python\\python313\\lib\\site-packages (from trio~=0.17->selenium>=4.0.0->selenium-wire) (1.3.1)\n",
      "Requirement already satisfied: pycparser in c:\\users\\administrator\\appdata\\local\\programs\\python\\python313\\lib\\site-packages (from cffi>=1.12->cryptography<45,>=41.0.5->pyOpenSSL>=22.0.0->selenium-wire) (2.22)\n",
      "Downloading selenium_wire-5.1.0-py3-none-any.whl (239 kB)\n",
      "Downloading blinker-1.9.0-py3-none-any.whl (8.5 kB)\n",
      "Downloading Brotli-1.1.0-cp313-cp313-win_amd64.whl (358 kB)\n",
      "Downloading h2-4.2.0-py3-none-any.whl (60 kB)\n",
      "Downloading hyperframe-6.1.0-py3-none-any.whl (13 kB)\n",
      "Downloading kaitaistruct-0.10-py2.py3-none-any.whl (7.0 kB)\n",
      "Downloading pyasn1-0.6.1-py3-none-any.whl (83 kB)\n",
      "Downloading pydivert-2.1.0-py2.py3-none-any.whl (104 kB)\n",
      "Downloading pyOpenSSL-25.0.0-py3-none-any.whl (56 kB)\n",
      "Downloading zstandard-0.23.0-cp313-cp313-win_amd64.whl (495 kB)\n",
      "Downloading cryptography-44.0.2-cp39-abi3-win_amd64.whl (3.2 MB)\n",
      "   ---------------------------------------- 0.0/3.2 MB ? eta -:--:--\n",
      "   ---------------------------------------- 3.2/3.2 MB 29.4 MB/s eta 0:00:00\n",
      "Downloading hpack-4.1.0-py3-none-any.whl (34 kB)\n",
      "Installing collected packages: pydivert, brotli, zstandard, pyasn1, kaitaistruct, hyperframe, hpack, blinker, h2, cryptography, pyOpenSSL, selenium-wire\n",
      "Successfully installed blinker-1.9.0 brotli-1.1.0 cryptography-44.0.2 h2-4.2.0 hpack-4.1.0 hyperframe-6.1.0 kaitaistruct-0.10 pyOpenSSL-25.0.0 pyasn1-0.6.1 pydivert-2.1.0 selenium-wire-5.1.0 zstandard-0.23.0\n",
      "Note: you may need to restart the kernel to use updated packages.\n"
     ]
    }
   ],
   "source": [
    "!pip install selenium-wire"
   ]
  },
  {
   "cell_type": "code",
   "execution_count": null,
   "id": "b47b8dfc-348e-4bc3-b21d-0e674498cf13",
   "metadata": {},
   "outputs": [
    {
     "name": "stdout",
     "output_type": "stream",
     "text": [
      "Collecting blinker==1.5\n",
      "  Downloading blinker-1.5-py2.py3-none-any.whl.metadata (1.8 kB)\n",
      "Downloading blinker-1.5-py2.py3-none-any.whl (12 kB)\n",
      "Installing collected packages: blinker\n",
      "  Attempting uninstall: blinker\n",
      "    Found existing installation: blinker 1.9.0\n",
      "    Uninstalling blinker-1.9.0:\n",
      "      Successfully uninstalled blinker-1.9.0\n",
      "Successfully installed blinker-1.5\n",
      "Note: you may need to restart the kernel to use updated packages.\n"
     ]
    }
   ],
   "source": [
    "!pip install blinker==1.5"
   ]
  },
  {
   "cell_type": "code",
   "execution_count": null,
   "id": "524f0266-c4c7-481d-b10f-246019154c19",
   "metadata": {
    "scrolled": true
   },
   "outputs": [
    {
     "name": "stderr",
     "output_type": "stream",
     "text": [
      "C:\\Users\\Administrator\\AppData\\Local\\Programs\\Python\\Python313\\Lib\\site-packages\\openpyxl\\styles\\stylesheet.py:237: UserWarning: Workbook contains no default style, apply openpyxl's default\n",
      "  warn(\"Workbook contains no default style, apply openpyxl's default\")\n"
     ]
    },
    {
     "name": "stdout",
     "output_type": "stream",
     "text": [
      "[INFO] 접속 중: L933113\n",
      "[INFO] 다운로드 시작: https://cctvsec.ktict.co.kr/9952/D61TTHsCphQPMeaRy3lH90zv6QVJyU0KwH5r0DPkSPBs2e3yapDEn7sZan6zkkvC\n",
      "[DEBUG] FFmpeg 출력: \n",
      "[DEBUG] FFmpeg 에러: ffmpeg version 7.1.1-essentials_build-www.gyan.dev Copyright (c) 2000-2025 the FFmpeg developers\n",
      "  built with gcc 14.2.0 (Rev1, Built by MSYS2 project)\n",
      "  configuration: --enable-gpl --enable-version3 --enable-static --disable-w32threads --disable-autodetect --enable-fontconfig --enable-iconv --enable-gnutls --enable-libxml2 --enable-gmp --enable-bzlib --enable-lzma --enable-zlib --enable-libsrt --enable-libssh --enable-libzmq --enable-avisynth --enable-sdl2 --enable-libwebp --enable-libx264 --enable-libx265 --enable-libxvid --enable-libaom --enable-libopenjpeg --enable-libvpx --enable-mediafoundation --enable-libass --enable-libfreetype --enable-libfribidi --enable-libharfbuzz --enable-libvidstab --enable-libvmaf --enable-libzimg --enable-amf --enable-cuda-llvm --enable-cuvid --enable-dxva2 --enable-d3d11va --enable-d3d12va --enable-ffnvcodec --enable-libvpl --enable-nvdec --enable-nvenc --enable-vaapi --enable-libgme --enable-libopenmpt --enable-libopencore-amrwb --enable-libmp3lame --enable-libtheora --enable-libvo-amrwbenc --enable-libgsm --enable-libopencore-amrnb --enable-libopus --enable-libspeex --enable-libvorbis --enable-librubberband\n",
      "  libavutil      59. 39.100 / 59. 39.100\n",
      "  libavcodec     61. 19.101 / 61. 19.101\n",
      "  libavformat    61.  7.100 / 61.  7.100\n",
      "  libavdevice    61.  3.100 / 61.  3.100\n",
      "  libavfilter    10.  4.100 / 10.  4.100\n",
      "  libswscale      8.  3.100 /  8.  3.100\n",
      "  libswresample   5.  3.100 /  5.  3.100\n",
      "  libpostproc    58.  3.100 / 58.  3.100\n",
      "Input #0, mov,mp4,m4a,3gp,3g2,mj2, from 'https://cctvsec.ktict.co.kr/9952/D61TTHsCphQPMeaRy3lH90zv6QVJyU0KwH5r0DPkSPBs2e3yapDEn7sZan6zkkvC':\n",
      "  Metadata:\n",
      "    major_brand     : isom\n",
      "    minor_version   : 512\n",
      "    compatible_brands: isomiso2avc1mp41\n",
      "    encoder         : Lavf59.16.100\n",
      "  Duration: 00:00:30.50, start: 0.000000, bitrate: 1157 kb/s\n",
      "  Stream #0:0[0x1](und): Video: h264 (Constrained Baseline) (avc1 / 0x31637661), yuv420p(tv, smpte170m, progressive), 720x406 [SAR 1:1 DAR 360:203], 1155 kb/s, 30.04 fps, 30 tbr, 90k tbn (default)\n",
      "      Metadata:\n",
      "        handler_name    : VideoHandler\n",
      "        vendor_id       : [0][0][0][0]\n",
      "Stream mapping:\n",
      "  Stream #0:0 -> #0:0 (copy)\n",
      "Output #0, mp4, to 'C:\\Users\\Administrator\\Downloads\\cctv_videos\\L933113.mp4':\n",
      "  Metadata:\n",
      "    major_brand     : isom\n",
      "    minor_version   : 512\n",
      "    compatible_brands: isomiso2avc1mp41\n",
      "    encoder         : Lavf61.7.100\n",
      "  Stream #0:0(und): Video: h264 (Constrained Baseline) (avc1 / 0x31637661), yuv420p(tv, smpte170m, progressive), 720x406 [SAR 1:1 DAR 360:203], q=2-31, 1155 kb/s, 30.04 fps, 30 tbr, 90k tbn (default)\n",
      "      Metadata:\n",
      "        handler_name    : VideoHandler\n",
      "        vendor_id       : [0][0][0][0]\n",
      "Press [q] to stop, [?] for help\n",
      "[out#0/mp4 @ 0000025255bc4b00] video:1369KiB audio:0KiB subtitle:0KiB other streams:0KiB global headers:0KiB muxing overhead: 0.266062%\n",
      "frame=  302 fps=0.0 q=-1.0 Lsize=    1373KiB time=00:00:10.13 bitrate=1110.2kbits/s speed=89.6x    \n",
      "\n",
      "[SUCCESS] 저장 완료: C:\\Users\\Administrator\\Downloads\\cctv_videos\\L933113.mp4\n",
      "[INFO] 접속 중: L933103\n",
      "[INFO] 다운로드 시작: https://cctvsec.ktict.co.kr/9995/u3ugcnTJHHZESz5Me6qFF+sZz9QoHK59JisbaAh1z6EP67/hWRicssheXXndWfNn\n",
      "[DEBUG] FFmpeg 출력: \n",
      "[DEBUG] FFmpeg 에러: ffmpeg version 7.1.1-essentials_build-www.gyan.dev Copyright (c) 2000-2025 the FFmpeg developers\n",
      "  built with gcc 14.2.0 (Rev1, Built by MSYS2 project)\n",
      "  configuration: --enable-gpl --enable-version3 --enable-static --disable-w32threads --disable-autodetect --enable-fontconfig --enable-iconv --enable-gnutls --enable-libxml2 --enable-gmp --enable-bzlib --enable-lzma --enable-zlib --enable-libsrt --enable-libssh --enable-libzmq --enable-avisynth --enable-sdl2 --enable-libwebp --enable-libx264 --enable-libx265 --enable-libxvid --enable-libaom --enable-libopenjpeg --enable-libvpx --enable-mediafoundation --enable-libass --enable-libfreetype --enable-libfribidi --enable-libharfbuzz --enable-libvidstab --enable-libvmaf --enable-libzimg --enable-amf --enable-cuda-llvm --enable-cuvid --enable-dxva2 --enable-d3d11va --enable-d3d12va --enable-ffnvcodec --enable-libvpl --enable-nvdec --enable-nvenc --enable-vaapi --enable-libgme --enable-libopenmpt --enable-libopencore-amrwb --enable-libmp3lame --enable-libtheora --enable-libvo-amrwbenc --enable-libgsm --enable-libopencore-amrnb --enable-libopus --enable-libspeex --enable-libvorbis --enable-librubberband\n",
      "  libavutil      59. 39.100 / 59. 39.100\n",
      "  libavcodec     61. 19.101 / 61. 19.101\n",
      "  libavformat    61.  7.100 / 61.  7.100\n",
      "  libavdevice    61.  3.100 / 61.  3.100\n",
      "  libavfilter    10.  4.100 / 10.  4.100\n",
      "  libswscale      8.  3.100 /  8.  3.100\n",
      "  libswresample   5.  3.100 /  5.  3.100\n",
      "  libpostproc    58.  3.100 / 58.  3.100\n",
      "Input #0, mov,mp4,m4a,3gp,3g2,mj2, from 'https://cctvsec.ktict.co.kr/9995/u3ugcnTJHHZESz5Me6qFF+sZz9QoHK59JisbaAh1z6EP67/hWRicssheXXndWfNn':\n",
      "  Metadata:\n",
      "    major_brand     : isom\n",
      "    minor_version   : 512\n",
      "    compatible_brands: isomiso2avc1mp41\n",
      "    encoder         : Lavf59.16.100\n",
      "  Duration: 00:00:30.49, start: 0.000000, bitrate: 628 kb/s\n",
      "  Stream #0:0[0x1](und): Video: h264 (Constrained Baseline) (avc1 / 0x31637661), yuv420p(tv, smpte170m, progressive), 720x406 [SAR 1:1 DAR 360:203], 625 kb/s, 28.44 fps, 30 tbr, 90k tbn (default)\n",
      "      Metadata:\n",
      "        handler_name    : VideoHandler\n",
      "        vendor_id       : [0][0][0][0]\n",
      "Stream mapping:\n",
      "  Stream #0:0 -> #0:0 (copy)\n",
      "Output #0, mp4, to 'C:\\Users\\Administrator\\Downloads\\cctv_videos\\L933103.mp4':\n",
      "  Metadata:\n",
      "    major_brand     : isom\n",
      "    minor_version   : 512\n",
      "    compatible_brands: isomiso2avc1mp41\n",
      "    encoder         : Lavf61.7.100\n",
      "  Stream #0:0(und): Video: h264 (Constrained Baseline) (avc1 / 0x31637661), yuv420p(tv, smpte170m, progressive), 720x406 [SAR 1:1 DAR 360:203], q=2-31, 625 kb/s, 28.44 fps, 30 tbr, 90k tbn (default)\n",
      "      Metadata:\n",
      "        handler_name    : VideoHandler\n",
      "        vendor_id       : [0][0][0][0]\n",
      "Press [q] to stop, [?] for help\n",
      "[out#0/mp4 @ 00000234ef753900] video:669KiB audio:0KiB subtitle:0KiB other streams:0KiB global headers:0KiB muxing overhead: 0.474484%\n",
      "frame=  253 fps=0.0 q=-1.0 Lsize=     672KiB time=00:00:10.15 bitrate= 542.4kbits/s speed= 159x    \n",
      "\n",
      "[SUCCESS] 저장 완료: C:\\Users\\Administrator\\Downloads\\cctv_videos\\L933103.mp4\n",
      "[INFO] 접속 중: L933094\n",
      "[INFO] 다운로드 시작: https://cctvsec.ktict.co.kr/9986/0E5leN/hTMEBIEgJkucrTRkMgPqCsy69QFaFMKhplXznrVtpodZb/qSh9NtmCvsU\n",
      "[DEBUG] FFmpeg 출력: \n",
      "[DEBUG] FFmpeg 에러: ffmpeg version 7.1.1-essentials_build-www.gyan.dev Copyright (c) 2000-2025 the FFmpeg developers\n",
      "  built with gcc 14.2.0 (Rev1, Built by MSYS2 project)\n",
      "  configuration: --enable-gpl --enable-version3 --enable-static --disable-w32threads --disable-autodetect --enable-fontconfig --enable-iconv --enable-gnutls --enable-libxml2 --enable-gmp --enable-bzlib --enable-lzma --enable-zlib --enable-libsrt --enable-libssh --enable-libzmq --enable-avisynth --enable-sdl2 --enable-libwebp --enable-libx264 --enable-libx265 --enable-libxvid --enable-libaom --enable-libopenjpeg --enable-libvpx --enable-mediafoundation --enable-libass --enable-libfreetype --enable-libfribidi --enable-libharfbuzz --enable-libvidstab --enable-libvmaf --enable-libzimg --enable-amf --enable-cuda-llvm --enable-cuvid --enable-dxva2 --enable-d3d11va --enable-d3d12va --enable-ffnvcodec --enable-libvpl --enable-nvdec --enable-nvenc --enable-vaapi --enable-libgme --enable-libopenmpt --enable-libopencore-amrwb --enable-libmp3lame --enable-libtheora --enable-libvo-amrwbenc --enable-libgsm --enable-libopencore-amrnb --enable-libopus --enable-libspeex --enable-libvorbis --enable-librubberband\n",
      "  libavutil      59. 39.100 / 59. 39.100\n",
      "  libavcodec     61. 19.101 / 61. 19.101\n",
      "  libavformat    61.  7.100 / 61.  7.100\n",
      "  libavdevice    61.  3.100 / 61.  3.100\n",
      "  libavfilter    10.  4.100 / 10.  4.100\n",
      "  libswscale      8.  3.100 /  8.  3.100\n",
      "  libswresample   5.  3.100 /  5.  3.100\n",
      "  libpostproc    58.  3.100 / 58.  3.100\n",
      "Input #0, mov,mp4,m4a,3gp,3g2,mj2, from 'https://cctvsec.ktict.co.kr/9986/0E5leN/hTMEBIEgJkucrTRkMgPqCsy69QFaFMKhplXznrVtpodZb/qSh9NtmCvsU':\n",
      "  Metadata:\n",
      "    major_brand     : isom\n",
      "    minor_version   : 512\n",
      "    compatible_brands: isomiso2avc1mp41\n",
      "    encoder         : Lavf59.16.100\n",
      "  Duration: 00:00:30.48, start: 0.000000, bitrate: 928 kb/s\n",
      "  Stream #0:0[0x1](und): Video: h264 (Constrained Baseline) (avc1 / 0x31637661), yuv420p(tv, smpte170m, progressive), 720x406 [SAR 1:1 DAR 360:203], 925 kb/s, 29.03 fps, 30 tbr, 90k tbn (default)\n",
      "      Metadata:\n",
      "        handler_name    : VideoHandler\n",
      "        vendor_id       : [0][0][0][0]\n",
      "Stream mapping:\n",
      "  Stream #0:0 -> #0:0 (copy)\n",
      "Output #0, mp4, to 'C:\\Users\\Administrator\\Downloads\\cctv_videos\\L933094.mp4':\n",
      "  Metadata:\n",
      "    major_brand     : isom\n",
      "    minor_version   : 512\n",
      "    compatible_brands: isomiso2avc1mp41\n",
      "    encoder         : Lavf61.7.100\n",
      "  Stream #0:0(und): Video: h264 (Constrained Baseline) (avc1 / 0x31637661), yuv420p(tv, smpte170m, progressive), 720x406 [SAR 1:1 DAR 360:203], q=2-31, 925 kb/s, 29.03 fps, 30 tbr, 90k tbn (default)\n",
      "      Metadata:\n",
      "        handler_name    : VideoHandler\n",
      "        vendor_id       : [0][0][0][0]\n",
      "Press [q] to stop, [?] for help\n",
      "[out#0/mp4 @ 00000225c1f03c40] video:1186KiB audio:0KiB subtitle:0KiB other streams:0KiB global headers:0KiB muxing overhead: 0.282180%\n",
      "frame=  271 fps=0.0 q=-1.0 Lsize=    1189KiB time=00:00:10.05 bitrate= 969.3kbits/s speed= 104x    \n",
      "\n",
      "[SUCCESS] 저장 완료: C:\\Users\\Administrator\\Downloads\\cctv_videos\\L933094.mp4\n",
      "[INFO] 접속 중: L933097\n",
      "[INFO] 다운로드 시작: https://cctvsec.ktict.co.kr/9989/FFyVgoT4k6cAWjeUeVEDT8S5RjGHZZnYNkG4dSy5PfkDxudOmFG8fA3LptH2UsaO\n",
      "[DEBUG] FFmpeg 출력: \n",
      "[DEBUG] FFmpeg 에러: ffmpeg version 7.1.1-essentials_build-www.gyan.dev Copyright (c) 2000-2025 the FFmpeg developers\n",
      "  built with gcc 14.2.0 (Rev1, Built by MSYS2 project)\n",
      "  configuration: --enable-gpl --enable-version3 --enable-static --disable-w32threads --disable-autodetect --enable-fontconfig --enable-iconv --enable-gnutls --enable-libxml2 --enable-gmp --enable-bzlib --enable-lzma --enable-zlib --enable-libsrt --enable-libssh --enable-libzmq --enable-avisynth --enable-sdl2 --enable-libwebp --enable-libx264 --enable-libx265 --enable-libxvid --enable-libaom --enable-libopenjpeg --enable-libvpx --enable-mediafoundation --enable-libass --enable-libfreetype --enable-libfribidi --enable-libharfbuzz --enable-libvidstab --enable-libvmaf --enable-libzimg --enable-amf --enable-cuda-llvm --enable-cuvid --enable-dxva2 --enable-d3d11va --enable-d3d12va --enable-ffnvcodec --enable-libvpl --enable-nvdec --enable-nvenc --enable-vaapi --enable-libgme --enable-libopenmpt --enable-libopencore-amrwb --enable-libmp3lame --enable-libtheora --enable-libvo-amrwbenc --enable-libgsm --enable-libopencore-amrnb --enable-libopus --enable-libspeex --enable-libvorbis --enable-librubberband\n",
      "  libavutil      59. 39.100 / 59. 39.100\n",
      "  libavcodec     61. 19.101 / 61. 19.101\n",
      "  libavformat    61.  7.100 / 61.  7.100\n",
      "  libavdevice    61.  3.100 / 61.  3.100\n",
      "  libavfilter    10.  4.100 / 10.  4.100\n",
      "  libswscale      8.  3.100 /  8.  3.100\n",
      "  libswresample   5.  3.100 /  5.  3.100\n",
      "  libpostproc    58.  3.100 / 58.  3.100\n",
      "Input #0, mov,mp4,m4a,3gp,3g2,mj2, from 'https://cctvsec.ktict.co.kr/9989/FFyVgoT4k6cAWjeUeVEDT8S5RjGHZZnYNkG4dSy5PfkDxudOmFG8fA3LptH2UsaO':\n",
      "  Metadata:\n",
      "    major_brand     : isom\n",
      "    minor_version   : 512\n",
      "    compatible_brands: isomiso2avc1mp41\n",
      "    encoder         : Lavf59.16.100\n",
      "  Duration: 00:00:30.47, start: 0.000000, bitrate: 1110 kb/s\n",
      "  Stream #0:0[0x1](und): Video: h264 (Constrained Baseline) (avc1 / 0x31637661), yuv420p(tv, smpte170m, progressive), 720x406 [SAR 1:1 DAR 360:203], 1108 kb/s, 29.05 fps, 30 tbr, 90k tbn (default)\n",
      "      Metadata:\n",
      "        handler_name    : VideoHandler\n",
      "        vendor_id       : [0][0][0][0]\n",
      "Stream mapping:\n",
      "  Stream #0:0 -> #0:0 (copy)\n",
      "Output #0, mp4, to 'C:\\Users\\Administrator\\Downloads\\cctv_videos\\L933097.mp4':\n",
      "  Metadata:\n",
      "    major_brand     : isom\n",
      "    minor_version   : 512\n",
      "    compatible_brands: isomiso2avc1mp41\n",
      "    encoder         : Lavf61.7.100\n",
      "  Stream #0:0(und): Video: h264 (Constrained Baseline) (avc1 / 0x31637661), yuv420p(tv, smpte170m, progressive), 720x406 [SAR 1:1 DAR 360:203], q=2-31, 1108 kb/s, 29.05 fps, 30 tbr, 90k tbn (default)\n",
      "      Metadata:\n",
      "        handler_name    : VideoHandler\n",
      "        vendor_id       : [0][0][0][0]\n",
      "Press [q] to stop, [?] for help\n",
      "[out#0/mp4 @ 0000028f34043d40] video:1277KiB audio:0KiB subtitle:0KiB other streams:0KiB global headers:0KiB muxing overhead: 0.262130%\n",
      "frame=  271 fps=0.0 q=-1.0 Lsize=    1280KiB time=00:00:10.06 bitrate=1041.4kbits/s speed=95.4x    \n",
      "\n",
      "[SUCCESS] 저장 완료: C:\\Users\\Administrator\\Downloads\\cctv_videos\\L933097.mp4\n",
      "[INFO] 접속 중: L933080\n",
      "[ERROR] L933080 처리 실패: Message: no such element: Unable to locate element: {\"method\":\"tag name\",\"selector\":\"source\"}\n",
      "  (Session info: chrome=135.0.7049.85); For documentation on this error, please visit: https://www.selenium.dev/documentation/webdriver/troubleshooting/errors#no-such-element-exception\n",
      "Stacktrace:\n",
      "\tGetHandleVerifier [0x00007FF77A565335+78597]\n",
      "\tGetHandleVerifier [0x00007FF77A565390+78688]\n",
      "\t(No symbol) [0x00007FF77A3191AA]\n",
      "\t(No symbol) [0x00007FF77A36F149]\n",
      "\t(No symbol) [0x00007FF77A36F3FC]\n",
      "\t(No symbol) [0x00007FF77A3C2467]\n",
      "\t(No symbol) [0x00007FF77A39712F]\n",
      "\t(No symbol) [0x00007FF77A3BF2BB]\n",
      "\t(No symbol) [0x00007FF77A396EC3]\n",
      "\t(No symbol) [0x00007FF77A3603F8]\n",
      "\t(No symbol) [0x00007FF77A361163]\n",
      "\tGetHandleVerifier [0x00007FF77A80EEED+2870973]\n",
      "\tGetHandleVerifier [0x00007FF77A809698+2848360]\n",
      "\tGetHandleVerifier [0x00007FF77A826973+2967875]\n",
      "\tGetHandleVerifier [0x00007FF77A58017A+188746]\n",
      "\tGetHandleVerifier [0x00007FF77A58845F+222255]\n",
      "\tGetHandleVerifier [0x00007FF77A56D2B4+111236]\n",
      "\tGetHandleVerifier [0x00007FF77A56D462+111666]\n",
      "\tGetHandleVerifier [0x00007FF77A553589+5465]\n",
      "\tBaseThreadInitThunk [0x00007FFC94C77374+20]\n",
      "\tRtlUserThreadStart [0x00007FFC9653CC91+33]\n",
      "\n",
      "[INFO] 접속 중: L933082\n",
      "[INFO] 다운로드 시작: https://cctvsec.ktict.co.kr/9974/1/5soI+2GIOJeaZ4VcQjnk/FzNG2PGrcycVuwELgn1k37/YhPsrM728aNleOP3ni\n",
      "[DEBUG] FFmpeg 출력: \n",
      "[DEBUG] FFmpeg 에러: ffmpeg version 7.1.1-essentials_build-www.gyan.dev Copyright (c) 2000-2025 the FFmpeg developers\n",
      "  built with gcc 14.2.0 (Rev1, Built by MSYS2 project)\n",
      "  configuration: --enable-gpl --enable-version3 --enable-static --disable-w32threads --disable-autodetect --enable-fontconfig --enable-iconv --enable-gnutls --enable-libxml2 --enable-gmp --enable-bzlib --enable-lzma --enable-zlib --enable-libsrt --enable-libssh --enable-libzmq --enable-avisynth --enable-sdl2 --enable-libwebp --enable-libx264 --enable-libx265 --enable-libxvid --enable-libaom --enable-libopenjpeg --enable-libvpx --enable-mediafoundation --enable-libass --enable-libfreetype --enable-libfribidi --enable-libharfbuzz --enable-libvidstab --enable-libvmaf --enable-libzimg --enable-amf --enable-cuda-llvm --enable-cuvid --enable-dxva2 --enable-d3d11va --enable-d3d12va --enable-ffnvcodec --enable-libvpl --enable-nvdec --enable-nvenc --enable-vaapi --enable-libgme --enable-libopenmpt --enable-libopencore-amrwb --enable-libmp3lame --enable-libtheora --enable-libvo-amrwbenc --enable-libgsm --enable-libopencore-amrnb --enable-libopus --enable-libspeex --enable-libvorbis --enable-librubberband\n",
      "  libavutil      59. 39.100 / 59. 39.100\n",
      "  libavcodec     61. 19.101 / 61. 19.101\n",
      "  libavformat    61.  7.100 / 61.  7.100\n",
      "  libavdevice    61.  3.100 / 61.  3.100\n",
      "  libavfilter    10.  4.100 / 10.  4.100\n",
      "  libswscale      8.  3.100 /  8.  3.100\n",
      "  libswresample   5.  3.100 /  5.  3.100\n",
      "  libpostproc    58.  3.100 / 58.  3.100\n",
      "Input #0, mov,mp4,m4a,3gp,3g2,mj2, from 'https://cctvsec.ktict.co.kr/9974/1/5soI+2GIOJeaZ4VcQjnk/FzNG2PGrcycVuwELgn1k37/YhPsrM728aNleOP3ni':\n",
      "  Metadata:\n",
      "    major_brand     : isom\n",
      "    minor_version   : 512\n",
      "    compatible_brands: isomiso2avc1mp41\n",
      "    encoder         : Lavf59.16.100\n",
      "  Duration: 00:00:30.47, start: 0.000000, bitrate: 1021 kb/s\n",
      "  Stream #0:0[0x1](und): Video: h264 (Constrained Baseline) (avc1 / 0x31637661), yuv420p(tv, smpte170m, progressive), 720x406 [SAR 1:1 DAR 360:203], 1018 kb/s, 30.03 fps, 29.92 tbr, 90k tbn (default)\n",
      "      Metadata:\n",
      "        handler_name    : VideoHandler\n",
      "        vendor_id       : [0][0][0][0]\n",
      "Stream mapping:\n",
      "  Stream #0:0 -> #0:0 (copy)\n",
      "Output #0, mp4, to 'C:\\Users\\Administrator\\Downloads\\cctv_videos\\L933082.mp4':\n",
      "  Metadata:\n",
      "    major_brand     : isom\n",
      "    minor_version   : 512\n",
      "    compatible_brands: isomiso2avc1mp41\n",
      "    encoder         : Lavf61.7.100\n",
      "  Stream #0:0(und): Video: h264 (Constrained Baseline) (avc1 / 0x31637661), yuv420p(tv, smpte170m, progressive), 720x406 [SAR 1:1 DAR 360:203], q=2-31, 1018 kb/s, 30.03 fps, 29.92 tbr, 90k tbn (default)\n",
      "      Metadata:\n",
      "        handler_name    : VideoHandler\n",
      "        vendor_id       : [0][0][0][0]\n",
      "Press [q] to stop, [?] for help\n",
      "[out#0/mp4 @ 000002287fab46c0] video:950KiB audio:0KiB subtitle:0KiB other streams:0KiB global headers:0KiB muxing overhead: 0.391624%\n",
      "frame=  301 fps=0.0 q=-1.0 Lsize=     954KiB time=00:00:10.03 bitrate= 778.7kbits/s speed= 128x    \n",
      "\n",
      "[SUCCESS] 저장 완료: C:\\Users\\Administrator\\Downloads\\cctv_videos\\L933082.mp4\n",
      "[INFO] 접속 중: L933064\n",
      "[INFO] 다운로드 시작: https://cctvsec.ktict.co.kr/9956/ha/4OdjF/CMJrtxzFWuS+DR4490X9I3zJdAr73HXafp4VOfhjQi5sL1xnekI7jjR\n",
      "[DEBUG] FFmpeg 출력: \n",
      "[DEBUG] FFmpeg 에러: ffmpeg version 7.1.1-essentials_build-www.gyan.dev Copyright (c) 2000-2025 the FFmpeg developers\n",
      "  built with gcc 14.2.0 (Rev1, Built by MSYS2 project)\n",
      "  configuration: --enable-gpl --enable-version3 --enable-static --disable-w32threads --disable-autodetect --enable-fontconfig --enable-iconv --enable-gnutls --enable-libxml2 --enable-gmp --enable-bzlib --enable-lzma --enable-zlib --enable-libsrt --enable-libssh --enable-libzmq --enable-avisynth --enable-sdl2 --enable-libwebp --enable-libx264 --enable-libx265 --enable-libxvid --enable-libaom --enable-libopenjpeg --enable-libvpx --enable-mediafoundation --enable-libass --enable-libfreetype --enable-libfribidi --enable-libharfbuzz --enable-libvidstab --enable-libvmaf --enable-libzimg --enable-amf --enable-cuda-llvm --enable-cuvid --enable-dxva2 --enable-d3d11va --enable-d3d12va --enable-ffnvcodec --enable-libvpl --enable-nvdec --enable-nvenc --enable-vaapi --enable-libgme --enable-libopenmpt --enable-libopencore-amrwb --enable-libmp3lame --enable-libtheora --enable-libvo-amrwbenc --enable-libgsm --enable-libopencore-amrnb --enable-libopus --enable-libspeex --enable-libvorbis --enable-librubberband\n",
      "  libavutil      59. 39.100 / 59. 39.100\n",
      "  libavcodec     61. 19.101 / 61. 19.101\n",
      "  libavformat    61.  7.100 / 61.  7.100\n",
      "  libavdevice    61.  3.100 / 61.  3.100\n",
      "  libavfilter    10.  4.100 / 10.  4.100\n",
      "  libswscale      8.  3.100 /  8.  3.100\n",
      "  libswresample   5.  3.100 /  5.  3.100\n",
      "  libpostproc    58.  3.100 / 58.  3.100\n",
      "Input #0, mov,mp4,m4a,3gp,3g2,mj2, from 'https://cctvsec.ktict.co.kr/9956/ha/4OdjF/CMJrtxzFWuS+DR4490X9I3zJdAr73HXafp4VOfhjQi5sL1xnekI7jjR':\n",
      "  Metadata:\n",
      "    major_brand     : isom\n",
      "    minor_version   : 512\n",
      "    compatible_brands: isomiso2avc1mp41\n",
      "    encoder         : Lavf59.16.100\n",
      "  Duration: 00:00:30.49, start: 0.000000, bitrate: 941 kb/s\n",
      "  Stream #0:0[0x1](und): Video: h264 (Constrained Baseline) (avc1 / 0x31637661), yuv420p(tv, smpte170m, progressive), 720x406 [SAR 1:1 DAR 360:203], 938 kb/s, 28.83 fps, 30 tbr, 90k tbn (default)\n",
      "      Metadata:\n",
      "        handler_name    : VideoHandler\n",
      "        vendor_id       : [0][0][0][0]\n",
      "Stream mapping:\n",
      "  Stream #0:0 -> #0:0 (copy)\n",
      "Output #0, mp4, to 'C:\\Users\\Administrator\\Downloads\\cctv_videos\\L933064.mp4':\n",
      "  Metadata:\n",
      "    major_brand     : isom\n",
      "    minor_version   : 512\n",
      "    compatible_brands: isomiso2avc1mp41\n",
      "    encoder         : Lavf61.7.100\n",
      "  Stream #0:0(und): Video: h264 (Constrained Baseline) (avc1 / 0x31637661), yuv420p(tv, smpte170m, progressive), 720x406 [SAR 1:1 DAR 360:203], q=2-31, 938 kb/s, 28.83 fps, 30 tbr, 90k tbn (default)\n",
      "      Metadata:\n",
      "        handler_name    : VideoHandler\n",
      "        vendor_id       : [0][0][0][0]\n",
      "Press [q] to stop, [?] for help\n",
      "[out#0/mp4 @ 0000015afef544c0] video:1238KiB audio:0KiB subtitle:0KiB other streams:0KiB global headers:0KiB muxing overhead: 0.265866%\n",
      "frame=  265 fps=0.0 q=-1.0 Lsize=    1242KiB time=00:00:10.12 bitrate=1004.5kbits/s speed= 102x    \n",
      "\n",
      "[SUCCESS] 저장 완료: C:\\Users\\Administrator\\Downloads\\cctv_videos\\L933064.mp4\n",
      "[INFO] 접속 중: L933085\n",
      "[INFO] 다운로드 시작: https://cctvsec.ktict.co.kr/9977/C+s7EQ6RNlMdTXRkgvqkGdUpY8HIIFhNXZiur0y92T83rhyKPj96QgEeqm/KOUIt\n",
      "[DEBUG] FFmpeg 출력: \n",
      "[DEBUG] FFmpeg 에러: ffmpeg version 7.1.1-essentials_build-www.gyan.dev Copyright (c) 2000-2025 the FFmpeg developers\n",
      "  built with gcc 14.2.0 (Rev1, Built by MSYS2 project)\n",
      "  configuration: --enable-gpl --enable-version3 --enable-static --disable-w32threads --disable-autodetect --enable-fontconfig --enable-iconv --enable-gnutls --enable-libxml2 --enable-gmp --enable-bzlib --enable-lzma --enable-zlib --enable-libsrt --enable-libssh --enable-libzmq --enable-avisynth --enable-sdl2 --enable-libwebp --enable-libx264 --enable-libx265 --enable-libxvid --enable-libaom --enable-libopenjpeg --enable-libvpx --enable-mediafoundation --enable-libass --enable-libfreetype --enable-libfribidi --enable-libharfbuzz --enable-libvidstab --enable-libvmaf --enable-libzimg --enable-amf --enable-cuda-llvm --enable-cuvid --enable-dxva2 --enable-d3d11va --enable-d3d12va --enable-ffnvcodec --enable-libvpl --enable-nvdec --enable-nvenc --enable-vaapi --enable-libgme --enable-libopenmpt --enable-libopencore-amrwb --enable-libmp3lame --enable-libtheora --enable-libvo-amrwbenc --enable-libgsm --enable-libopencore-amrnb --enable-libopus --enable-libspeex --enable-libvorbis --enable-librubberband\n",
      "  libavutil      59. 39.100 / 59. 39.100\n",
      "  libavcodec     61. 19.101 / 61. 19.101\n",
      "  libavformat    61.  7.100 / 61.  7.100\n",
      "  libavdevice    61.  3.100 / 61.  3.100\n",
      "  libavfilter    10.  4.100 / 10.  4.100\n",
      "  libswscale      8.  3.100 /  8.  3.100\n",
      "  libswresample   5.  3.100 /  5.  3.100\n",
      "  libpostproc    58.  3.100 / 58.  3.100\n",
      "Input #0, mov,mp4,m4a,3gp,3g2,mj2, from 'https://cctvsec.ktict.co.kr/9977/C+s7EQ6RNlMdTXRkgvqkGdUpY8HIIFhNXZiur0y92T83rhyKPj96QgEeqm/KOUIt':\n",
      "  Metadata:\n",
      "    major_brand     : isom\n",
      "    minor_version   : 512\n",
      "    compatible_brands: isomiso2avc1mp41\n",
      "    encoder         : Lavf59.16.100\n",
      "  Duration: 00:00:30.47, start: 0.000000, bitrate: 951 kb/s\n",
      "  Stream #0:0[0x1](und): Video: h264 (Constrained Baseline) (avc1 / 0x31637661), yuv420p(tv, smpte170m, progressive), 720x406 [SAR 1:1 DAR 360:203], 948 kb/s, 29.27 fps, 30 tbr, 90k tbn (default)\n",
      "      Metadata:\n",
      "        handler_name    : VideoHandler\n",
      "        vendor_id       : [0][0][0][0]\n",
      "Stream mapping:\n",
      "  Stream #0:0 -> #0:0 (copy)\n",
      "Output #0, mp4, to 'C:\\Users\\Administrator\\Downloads\\cctv_videos\\L933085.mp4':\n",
      "  Metadata:\n",
      "    major_brand     : isom\n",
      "    minor_version   : 512\n",
      "    compatible_brands: isomiso2avc1mp41\n",
      "    encoder         : Lavf61.7.100\n",
      "  Stream #0:0(und): Video: h264 (Constrained Baseline) (avc1 / 0x31637661), yuv420p(tv, smpte170m, progressive), 720x406 [SAR 1:1 DAR 360:203], q=2-31, 948 kb/s, 29.27 fps, 30 tbr, 90k tbn (default)\n",
      "      Metadata:\n",
      "        handler_name    : VideoHandler\n",
      "        vendor_id       : [0][0][0][0]\n",
      "Press [q] to stop, [?] for help\n",
      "[out#0/mp4 @ 000001b27f243b40] video:1255KiB audio:0KiB subtitle:0KiB other streams:0KiB global headers:0KiB muxing overhead: 0.271998%\n",
      "frame=  278 fps=0.0 q=-1.0 Lsize=    1258KiB time=00:00:10.07 bitrate=1022.9kbits/s speed=59.8x    \n",
      "\n",
      "[SUCCESS] 저장 완료: C:\\Users\\Administrator\\Downloads\\cctv_videos\\L933085.mp4\n",
      "[INFO] 접속 중: L933093\n",
      "[INFO] 다운로드 시작: https://cctvsec.ktict.co.kr/9985/GJ6Z1x4Uop1vg/yFUyZOkwXcX7ejwWYyF5/2XIop39wVWwp1TbrICE0TmTk/oGqa\n",
      "[DEBUG] FFmpeg 출력: \n",
      "[DEBUG] FFmpeg 에러: ffmpeg version 7.1.1-essentials_build-www.gyan.dev Copyright (c) 2000-2025 the FFmpeg developers\n",
      "  built with gcc 14.2.0 (Rev1, Built by MSYS2 project)\n",
      "  configuration: --enable-gpl --enable-version3 --enable-static --disable-w32threads --disable-autodetect --enable-fontconfig --enable-iconv --enable-gnutls --enable-libxml2 --enable-gmp --enable-bzlib --enable-lzma --enable-zlib --enable-libsrt --enable-libssh --enable-libzmq --enable-avisynth --enable-sdl2 --enable-libwebp --enable-libx264 --enable-libx265 --enable-libxvid --enable-libaom --enable-libopenjpeg --enable-libvpx --enable-mediafoundation --enable-libass --enable-libfreetype --enable-libfribidi --enable-libharfbuzz --enable-libvidstab --enable-libvmaf --enable-libzimg --enable-amf --enable-cuda-llvm --enable-cuvid --enable-dxva2 --enable-d3d11va --enable-d3d12va --enable-ffnvcodec --enable-libvpl --enable-nvdec --enable-nvenc --enable-vaapi --enable-libgme --enable-libopenmpt --enable-libopencore-amrwb --enable-libmp3lame --enable-libtheora --enable-libvo-amrwbenc --enable-libgsm --enable-libopencore-amrnb --enable-libopus --enable-libspeex --enable-libvorbis --enable-librubberband\n",
      "  libavutil      59. 39.100 / 59. 39.100\n",
      "  libavcodec     61. 19.101 / 61. 19.101\n",
      "  libavformat    61.  7.100 / 61.  7.100\n",
      "  libavdevice    61.  3.100 / 61.  3.100\n",
      "  libavfilter    10.  4.100 / 10.  4.100\n",
      "  libswscale      8.  3.100 /  8.  3.100\n",
      "  libswresample   5.  3.100 /  5.  3.100\n",
      "  libpostproc    58.  3.100 / 58.  3.100\n",
      "Input #0, mov,mp4,m4a,3gp,3g2,mj2, from 'https://cctvsec.ktict.co.kr/9985/GJ6Z1x4Uop1vg/yFUyZOkwXcX7ejwWYyF5/2XIop39wVWwp1TbrICE0TmTk/oGqa':\n",
      "  Metadata:\n",
      "    major_brand     : isom\n",
      "    minor_version   : 512\n",
      "    compatible_brands: isomiso2avc1mp41\n",
      "    encoder         : Lavf59.16.100\n",
      "  Duration: 00:00:30.50, start: 0.000000, bitrate: 986 kb/s\n",
      "  Stream #0:0[0x1](und): Video: h264 (Constrained Baseline) (avc1 / 0x31637661), yuv420p(tv, smpte170m, progressive), 720x406 [SAR 1:1 DAR 360:203], 983 kb/s, 29.18 fps, 30 tbr, 90k tbn (default)\n",
      "      Metadata:\n",
      "        handler_name    : VideoHandler\n",
      "        vendor_id       : [0][0][0][0]\n",
      "Stream mapping:\n",
      "  Stream #0:0 -> #0:0 (copy)\n",
      "Output #0, mp4, to 'C:\\Users\\Administrator\\Downloads\\cctv_videos\\L933093.mp4':\n",
      "  Metadata:\n",
      "    major_brand     : isom\n",
      "    minor_version   : 512\n",
      "    compatible_brands: isomiso2avc1mp41\n",
      "    encoder         : Lavf61.7.100\n",
      "  Stream #0:0(und): Video: h264 (Constrained Baseline) (avc1 / 0x31637661), yuv420p(tv, smpte170m, progressive), 720x406 [SAR 1:1 DAR 360:203], q=2-31, 983 kb/s, 29.18 fps, 30 tbr, 90k tbn (default)\n",
      "      Metadata:\n",
      "        handler_name    : VideoHandler\n",
      "        vendor_id       : [0][0][0][0]\n",
      "Press [q] to stop, [?] for help\n",
      "[out#0/mp4 @ 0000018c28083e40] video:1036KiB audio:0KiB subtitle:0KiB other streams:0KiB global headers:0KiB muxing overhead: 0.326807%\n",
      "frame=  275 fps=0.0 q=-1.0 Lsize=    1039KiB time=00:00:10.10 bitrate= 843.0kbits/s speed= 137x    \n",
      "\n",
      "[SUCCESS] 저장 완료: C:\\Users\\Administrator\\Downloads\\cctv_videos\\L933093.mp4\n",
      "[INFO] 접속 중: L933095\n",
      "[INFO] 다운로드 시작: https://cctvsec.ktict.co.kr/9987/YMvPejdL14azuPljFX1tk4PUpblPSvUIc3Ked/0c+KQy8bCqeXZCBEqzZPPhj+U4\n",
      "[DEBUG] FFmpeg 출력: \n",
      "[DEBUG] FFmpeg 에러: ffmpeg version 7.1.1-essentials_build-www.gyan.dev Copyright (c) 2000-2025 the FFmpeg developers\n",
      "  built with gcc 14.2.0 (Rev1, Built by MSYS2 project)\n",
      "  configuration: --enable-gpl --enable-version3 --enable-static --disable-w32threads --disable-autodetect --enable-fontconfig --enable-iconv --enable-gnutls --enable-libxml2 --enable-gmp --enable-bzlib --enable-lzma --enable-zlib --enable-libsrt --enable-libssh --enable-libzmq --enable-avisynth --enable-sdl2 --enable-libwebp --enable-libx264 --enable-libx265 --enable-libxvid --enable-libaom --enable-libopenjpeg --enable-libvpx --enable-mediafoundation --enable-libass --enable-libfreetype --enable-libfribidi --enable-libharfbuzz --enable-libvidstab --enable-libvmaf --enable-libzimg --enable-amf --enable-cuda-llvm --enable-cuvid --enable-dxva2 --enable-d3d11va --enable-d3d12va --enable-ffnvcodec --enable-libvpl --enable-nvdec --enable-nvenc --enable-vaapi --enable-libgme --enable-libopenmpt --enable-libopencore-amrwb --enable-libmp3lame --enable-libtheora --enable-libvo-amrwbenc --enable-libgsm --enable-libopencore-amrnb --enable-libopus --enable-libspeex --enable-libvorbis --enable-librubberband\n",
      "  libavutil      59. 39.100 / 59. 39.100\n",
      "  libavcodec     61. 19.101 / 61. 19.101\n",
      "  libavformat    61.  7.100 / 61.  7.100\n",
      "  libavdevice    61.  3.100 / 61.  3.100\n",
      "  libavfilter    10.  4.100 / 10.  4.100\n",
      "  libswscale      8.  3.100 /  8.  3.100\n",
      "  libswresample   5.  3.100 /  5.  3.100\n",
      "  libpostproc    58.  3.100 / 58.  3.100\n",
      "Input #0, mov,mp4,m4a,3gp,3g2,mj2, from 'https://cctvsec.ktict.co.kr/9987/YMvPejdL14azuPljFX1tk4PUpblPSvUIc3Ked/0c+KQy8bCqeXZCBEqzZPPhj+U4':\n",
      "  Metadata:\n",
      "    major_brand     : isom\n",
      "    minor_version   : 512\n",
      "    compatible_brands: isomiso2avc1mp41\n",
      "    encoder         : Lavf59.16.100\n",
      "  Duration: 00:00:30.47, start: 0.000000, bitrate: 975 kb/s\n",
      "  Stream #0:0[0x1](und): Video: h264 (Constrained Baseline) (avc1 / 0x31637661), yuv420p(tv, smpte170m, progressive), 720x406 [SAR 1:1 DAR 360:203], 972 kb/s, 29.27 fps, 30 tbr, 90k tbn (default)\n",
      "      Metadata:\n",
      "        handler_name    : VideoHandler\n",
      "        vendor_id       : [0][0][0][0]\n",
      "Stream mapping:\n",
      "  Stream #0:0 -> #0:0 (copy)\n",
      "Output #0, mp4, to 'C:\\Users\\Administrator\\Downloads\\cctv_videos\\L933095.mp4':\n",
      "  Metadata:\n",
      "    major_brand     : isom\n",
      "    minor_version   : 512\n",
      "    compatible_brands: isomiso2avc1mp41\n",
      "    encoder         : Lavf61.7.100\n",
      "  Stream #0:0(und): Video: h264 (Constrained Baseline) (avc1 / 0x31637661), yuv420p(tv, smpte170m, progressive), 720x406 [SAR 1:1 DAR 360:203], q=2-31, 972 kb/s, 29.27 fps, 30 tbr, 90k tbn (default)\n",
      "      Metadata:\n",
      "        handler_name    : VideoHandler\n",
      "        vendor_id       : [0][0][0][0]\n",
      "Press [q] to stop, [?] for help\n",
      "[out#0/mp4 @ 00000280a00644c0] video:1048KiB audio:0KiB subtitle:0KiB other streams:0KiB global headers:0KiB muxing overhead: 0.325530%\n",
      "frame=  278 fps=0.0 q=-1.0 Lsize=    1052KiB time=00:00:10.10 bitrate= 852.4kbits/s speed= 141x    \n",
      "\n",
      "[SUCCESS] 저장 완료: C:\\Users\\Administrator\\Downloads\\cctv_videos\\L933095.mp4\n",
      "[INFO] 접속 중: L933096\n",
      "[INFO] 다운로드 시작: https://cctvsec.ktict.co.kr/9988/VsFPaIa6MCmqeIOMncw1UkSWQh6/8lEtUgcmQbdyr+nUs/e9JUFfiDnpNXVBasL1\n",
      "[DEBUG] FFmpeg 출력: \n",
      "[DEBUG] FFmpeg 에러: ffmpeg version 7.1.1-essentials_build-www.gyan.dev Copyright (c) 2000-2025 the FFmpeg developers\n",
      "  built with gcc 14.2.0 (Rev1, Built by MSYS2 project)\n",
      "  configuration: --enable-gpl --enable-version3 --enable-static --disable-w32threads --disable-autodetect --enable-fontconfig --enable-iconv --enable-gnutls --enable-libxml2 --enable-gmp --enable-bzlib --enable-lzma --enable-zlib --enable-libsrt --enable-libssh --enable-libzmq --enable-avisynth --enable-sdl2 --enable-libwebp --enable-libx264 --enable-libx265 --enable-libxvid --enable-libaom --enable-libopenjpeg --enable-libvpx --enable-mediafoundation --enable-libass --enable-libfreetype --enable-libfribidi --enable-libharfbuzz --enable-libvidstab --enable-libvmaf --enable-libzimg --enable-amf --enable-cuda-llvm --enable-cuvid --enable-dxva2 --enable-d3d11va --enable-d3d12va --enable-ffnvcodec --enable-libvpl --enable-nvdec --enable-nvenc --enable-vaapi --enable-libgme --enable-libopenmpt --enable-libopencore-amrwb --enable-libmp3lame --enable-libtheora --enable-libvo-amrwbenc --enable-libgsm --enable-libopencore-amrnb --enable-libopus --enable-libspeex --enable-libvorbis --enable-librubberband\n",
      "  libavutil      59. 39.100 / 59. 39.100\n",
      "  libavcodec     61. 19.101 / 61. 19.101\n",
      "  libavformat    61.  7.100 / 61.  7.100\n",
      "  libavdevice    61.  3.100 / 61.  3.100\n",
      "  libavfilter    10.  4.100 / 10.  4.100\n",
      "  libswscale      8.  3.100 /  8.  3.100\n",
      "  libswresample   5.  3.100 /  5.  3.100\n",
      "  libpostproc    58.  3.100 / 58.  3.100\n",
      "Input #0, mov,mp4,m4a,3gp,3g2,mj2, from 'https://cctvsec.ktict.co.kr/9988/VsFPaIa6MCmqeIOMncw1UkSWQh6/8lEtUgcmQbdyr+nUs/e9JUFfiDnpNXVBasL1':\n",
      "  Metadata:\n",
      "    major_brand     : isom\n",
      "    minor_version   : 512\n",
      "    compatible_brands: isomiso2avc1mp41\n",
      "    encoder         : Lavf59.16.100\n",
      "  Duration: 00:00:30.47, start: 0.000000, bitrate: 1205 kb/s\n",
      "  Stream #0:0[0x1](und): Video: h264 (Constrained Baseline) (avc1 / 0x31637661), yuv420p(tv, smpte170m, progressive), 720x406 [SAR 1:1 DAR 360:203], 1202 kb/s, 28.32 fps, 30 tbr, 90k tbn (default)\n",
      "      Metadata:\n",
      "        handler_name    : VideoHandler\n",
      "        vendor_id       : [0][0][0][0]\n",
      "Stream mapping:\n",
      "  Stream #0:0 -> #0:0 (copy)\n",
      "Output #0, mp4, to 'C:\\Users\\Administrator\\Downloads\\cctv_videos\\L933096.mp4':\n",
      "  Metadata:\n",
      "    major_brand     : isom\n",
      "    minor_version   : 512\n",
      "    compatible_brands: isomiso2avc1mp41\n",
      "    encoder         : Lavf61.7.100\n",
      "  Stream #0:0(und): Video: h264 (Constrained Baseline) (avc1 / 0x31637661), yuv420p(tv, smpte170m, progressive), 720x406 [SAR 1:1 DAR 360:203], q=2-31, 1202 kb/s, 28.32 fps, 30 tbr, 90k tbn (default)\n",
      "      Metadata:\n",
      "        handler_name    : VideoHandler\n",
      "        vendor_id       : [0][0][0][0]\n",
      "Press [q] to stop, [?] for help\n",
      "[tls @ 000001ac9315ff40] Error in the pull function.\n",
      "[tls @ 000001ac9315ff40] IO error: End of file\n",
      "[https @ 000001ac9315fdc0] Stream ends prematurely at 933888, should be 4590758\n",
      "[mov,mp4,m4a,3gp,3g2,mj2 @ 000001ac9315f780] Packet corrupt (stream = 0, dts = 735976).\n",
      "[h264 @ 000001ac93429500] Invalid NAL unit size (1254 > 18).\n",
      "[h264 @ 000001ac93429500] missing picture in access unit with size 51\n",
      "[in#0/mov,mp4,m4a,3gp,3g2,mj2 @ 000001ac9315f380] corrupt input packet in stream 0\n",
      "[mov,mp4,m4a,3gp,3g2,mj2 @ 000001ac9315f780] stream 0, offset 0xe44d4: partial file\n",
      "[in#0/mov,mp4,m4a,3gp,3g2,mj2 @ 000001ac9315f380] Error during demuxing: I/O error\n",
      "[out#0/mp4 @ 000001ac93274900] video:903KiB audio:0KiB subtitle:0KiB other streams:0KiB global headers:0KiB muxing overhead: 0.293123%\n",
      "frame=  195 fps=0.0 q=-1.0 Lsize=     906KiB time=00:00:08.21 bitrate= 903.8kbits/s speed= 132x    \n",
      "\n",
      "[SUCCESS] 저장 완료: C:\\Users\\Administrator\\Downloads\\cctv_videos\\L933096.mp4\n",
      "[INFO] 접속 중: L933077\n",
      "[INFO] 다운로드 시작: https://cctvsec.ktict.co.kr/9969/jl9Q9ec7IkmAtohlfKbL4pZS5pXxXQdp0v1850JQzyqM40jjjrPy8cIbmMZaXycv\n",
      "[DEBUG] FFmpeg 출력: \n",
      "[DEBUG] FFmpeg 에러: ffmpeg version 7.1.1-essentials_build-www.gyan.dev Copyright (c) 2000-2025 the FFmpeg developers\n",
      "  built with gcc 14.2.0 (Rev1, Built by MSYS2 project)\n",
      "  configuration: --enable-gpl --enable-version3 --enable-static --disable-w32threads --disable-autodetect --enable-fontconfig --enable-iconv --enable-gnutls --enable-libxml2 --enable-gmp --enable-bzlib --enable-lzma --enable-zlib --enable-libsrt --enable-libssh --enable-libzmq --enable-avisynth --enable-sdl2 --enable-libwebp --enable-libx264 --enable-libx265 --enable-libxvid --enable-libaom --enable-libopenjpeg --enable-libvpx --enable-mediafoundation --enable-libass --enable-libfreetype --enable-libfribidi --enable-libharfbuzz --enable-libvidstab --enable-libvmaf --enable-libzimg --enable-amf --enable-cuda-llvm --enable-cuvid --enable-dxva2 --enable-d3d11va --enable-d3d12va --enable-ffnvcodec --enable-libvpl --enable-nvdec --enable-nvenc --enable-vaapi --enable-libgme --enable-libopenmpt --enable-libopencore-amrwb --enable-libmp3lame --enable-libtheora --enable-libvo-amrwbenc --enable-libgsm --enable-libopencore-amrnb --enable-libopus --enable-libspeex --enable-libvorbis --enable-librubberband\n",
      "  libavutil      59. 39.100 / 59. 39.100\n",
      "  libavcodec     61. 19.101 / 61. 19.101\n",
      "  libavformat    61.  7.100 / 61.  7.100\n",
      "  libavdevice    61.  3.100 / 61.  3.100\n",
      "  libavfilter    10.  4.100 / 10.  4.100\n",
      "  libswscale      8.  3.100 /  8.  3.100\n",
      "  libswresample   5.  3.100 /  5.  3.100\n",
      "  libpostproc    58.  3.100 / 58.  3.100\n",
      "Input #0, mov,mp4,m4a,3gp,3g2,mj2, from 'https://cctvsec.ktict.co.kr/9969/jl9Q9ec7IkmAtohlfKbL4pZS5pXxXQdp0v1850JQzyqM40jjjrPy8cIbmMZaXycv':\n",
      "  Metadata:\n",
      "    major_brand     : isom\n",
      "    minor_version   : 512\n",
      "    compatible_brands: isomiso2avc1mp41\n",
      "    encoder         : Lavf59.16.100\n",
      "  Duration: 00:00:30.48, start: 0.000000, bitrate: 993 kb/s\n",
      "  Stream #0:0[0x1](und): Video: h264 (Constrained Baseline) (avc1 / 0x31637661), yuv420p(tv, smpte170m, progressive), 720x406 [SAR 1:1 DAR 360:203], 991 kb/s, 28.84 fps, 30 tbr, 90k tbn (default)\n",
      "      Metadata:\n",
      "        handler_name    : VideoHandler\n",
      "        vendor_id       : [0][0][0][0]\n",
      "Stream mapping:\n",
      "  Stream #0:0 -> #0:0 (copy)\n",
      "Output #0, mp4, to 'C:\\Users\\Administrator\\Downloads\\cctv_videos\\L933077.mp4':\n",
      "  Metadata:\n",
      "    major_brand     : isom\n",
      "    minor_version   : 512\n",
      "    compatible_brands: isomiso2avc1mp41\n",
      "    encoder         : Lavf61.7.100\n",
      "  Stream #0:0(und): Video: h264 (Constrained Baseline) (avc1 / 0x31637661), yuv420p(tv, smpte170m, progressive), 720x406 [SAR 1:1 DAR 360:203], q=2-31, 991 kb/s, 28.84 fps, 30 tbr, 90k tbn (default)\n",
      "      Metadata:\n",
      "        handler_name    : VideoHandler\n",
      "        vendor_id       : [0][0][0][0]\n",
      "Press [q] to stop, [?] for help\n",
      "[out#0/mp4 @ 00000194d5703f80] video:1256KiB audio:0KiB subtitle:0KiB other streams:0KiB global headers:0KiB muxing overhead: 0.262630%\n",
      "frame=  265 fps=0.0 q=-1.0 Lsize=    1260KiB time=00:00:10.04 bitrate=1027.4kbits/s speed=82.8x    \n",
      "\n",
      "[SUCCESS] 저장 완료: C:\\Users\\Administrator\\Downloads\\cctv_videos\\L933077.mp4\n",
      "[INFO] 접속 중: L933078\n",
      "[INFO] 다운로드 시작: https://cctvsec.ktict.co.kr/9970/4hMr0kyj59zQUuh0Tv8b+a2GEhp2+OeIMD1NiE1Mvm4QUISL0rcsuQew69LN7Znb\n",
      "[DEBUG] FFmpeg 출력: \n",
      "[DEBUG] FFmpeg 에러: ffmpeg version 7.1.1-essentials_build-www.gyan.dev Copyright (c) 2000-2025 the FFmpeg developers\n",
      "  built with gcc 14.2.0 (Rev1, Built by MSYS2 project)\n",
      "  configuration: --enable-gpl --enable-version3 --enable-static --disable-w32threads --disable-autodetect --enable-fontconfig --enable-iconv --enable-gnutls --enable-libxml2 --enable-gmp --enable-bzlib --enable-lzma --enable-zlib --enable-libsrt --enable-libssh --enable-libzmq --enable-avisynth --enable-sdl2 --enable-libwebp --enable-libx264 --enable-libx265 --enable-libxvid --enable-libaom --enable-libopenjpeg --enable-libvpx --enable-mediafoundation --enable-libass --enable-libfreetype --enable-libfribidi --enable-libharfbuzz --enable-libvidstab --enable-libvmaf --enable-libzimg --enable-amf --enable-cuda-llvm --enable-cuvid --enable-dxva2 --enable-d3d11va --enable-d3d12va --enable-ffnvcodec --enable-libvpl --enable-nvdec --enable-nvenc --enable-vaapi --enable-libgme --enable-libopenmpt --enable-libopencore-amrwb --enable-libmp3lame --enable-libtheora --enable-libvo-amrwbenc --enable-libgsm --enable-libopencore-amrnb --enable-libopus --enable-libspeex --enable-libvorbis --enable-librubberband\n",
      "  libavutil      59. 39.100 / 59. 39.100\n",
      "  libavcodec     61. 19.101 / 61. 19.101\n",
      "  libavformat    61.  7.100 / 61.  7.100\n",
      "  libavdevice    61.  3.100 / 61.  3.100\n",
      "  libavfilter    10.  4.100 / 10.  4.100\n",
      "  libswscale      8.  3.100 /  8.  3.100\n",
      "  libswresample   5.  3.100 /  5.  3.100\n",
      "  libpostproc    58.  3.100 / 58.  3.100\n",
      "Input #0, mov,mp4,m4a,3gp,3g2,mj2, from 'https://cctvsec.ktict.co.kr/9970/4hMr0kyj59zQUuh0Tv8b+a2GEhp2+OeIMD1NiE1Mvm4QUISL0rcsuQew69LN7Znb':\n",
      "  Metadata:\n",
      "    major_brand     : isom\n",
      "    minor_version   : 512\n",
      "    compatible_brands: isomiso2avc1mp41\n",
      "    encoder         : Lavf59.16.100\n",
      "  Duration: 00:00:30.49, start: 0.000000, bitrate: 953 kb/s\n",
      "  Stream #0:0[0x1](und): Video: h264 (Constrained Baseline) (avc1 / 0x31637661), yuv420p(tv, smpte170m, progressive), 720x406 [SAR 1:1 DAR 360:203], 950 kb/s, 29.58 fps, 30 tbr, 90k tbn (default)\n",
      "      Metadata:\n",
      "        handler_name    : VideoHandler\n",
      "        vendor_id       : [0][0][0][0]\n",
      "Stream mapping:\n",
      "  Stream #0:0 -> #0:0 (copy)\n",
      "Output #0, mp4, to 'C:\\Users\\Administrator\\Downloads\\cctv_videos\\L933078.mp4':\n",
      "  Metadata:\n",
      "    major_brand     : isom\n",
      "    minor_version   : 512\n",
      "    compatible_brands: isomiso2avc1mp41\n",
      "    encoder         : Lavf61.7.100\n",
      "  Stream #0:0(und): Video: h264 (Constrained Baseline) (avc1 / 0x31637661), yuv420p(tv, smpte170m, progressive), 720x406 [SAR 1:1 DAR 360:203], q=2-31, 950 kb/s, 29.58 fps, 30 tbr, 90k tbn (default)\n",
      "      Metadata:\n",
      "        handler_name    : VideoHandler\n",
      "        vendor_id       : [0][0][0][0]\n",
      "Press [q] to stop, [?] for help\n",
      "[out#0/mp4 @ 00000187c8be55c0] video:1017KiB audio:0KiB subtitle:0KiB other streams:0KiB global headers:0KiB muxing overhead: 0.343273%\n",
      "frame=  288 fps=0.0 q=-1.0 Lsize=    1021KiB time=00:00:10.06 bitrate= 830.9kbits/s speed= 143x    \n",
      "\n",
      "[SUCCESS] 저장 완료: C:\\Users\\Administrator\\Downloads\\cctv_videos\\L933078.mp4\n",
      "[INFO] 접속 중: L933065\n",
      "[INFO] 다운로드 시작: https://cctvsec.ktict.co.kr/9957/wVQpwLkEgMi5u8WcBASg4gnW8QBc2R0xGRU3zWbNBAURLtS+P26u+Pgt7K4AaK6B\n",
      "[DEBUG] FFmpeg 출력: \n",
      "[DEBUG] FFmpeg 에러: ffmpeg version 7.1.1-essentials_build-www.gyan.dev Copyright (c) 2000-2025 the FFmpeg developers\n",
      "  built with gcc 14.2.0 (Rev1, Built by MSYS2 project)\n",
      "  configuration: --enable-gpl --enable-version3 --enable-static --disable-w32threads --disable-autodetect --enable-fontconfig --enable-iconv --enable-gnutls --enable-libxml2 --enable-gmp --enable-bzlib --enable-lzma --enable-zlib --enable-libsrt --enable-libssh --enable-libzmq --enable-avisynth --enable-sdl2 --enable-libwebp --enable-libx264 --enable-libx265 --enable-libxvid --enable-libaom --enable-libopenjpeg --enable-libvpx --enable-mediafoundation --enable-libass --enable-libfreetype --enable-libfribidi --enable-libharfbuzz --enable-libvidstab --enable-libvmaf --enable-libzimg --enable-amf --enable-cuda-llvm --enable-cuvid --enable-dxva2 --enable-d3d11va --enable-d3d12va --enable-ffnvcodec --enable-libvpl --enable-nvdec --enable-nvenc --enable-vaapi --enable-libgme --enable-libopenmpt --enable-libopencore-amrwb --enable-libmp3lame --enable-libtheora --enable-libvo-amrwbenc --enable-libgsm --enable-libopencore-amrnb --enable-libopus --enable-libspeex --enable-libvorbis --enable-librubberband\n",
      "  libavutil      59. 39.100 / 59. 39.100\n",
      "  libavcodec     61. 19.101 / 61. 19.101\n",
      "  libavformat    61.  7.100 / 61.  7.100\n",
      "  libavdevice    61.  3.100 / 61.  3.100\n",
      "  libavfilter    10.  4.100 / 10.  4.100\n",
      "  libswscale      8.  3.100 /  8.  3.100\n",
      "  libswresample   5.  3.100 /  5.  3.100\n",
      "  libpostproc    58.  3.100 / 58.  3.100\n",
      "Input #0, mov,mp4,m4a,3gp,3g2,mj2, from 'https://cctvsec.ktict.co.kr/9957/wVQpwLkEgMi5u8WcBASg4gnW8QBc2R0xGRU3zWbNBAURLtS+P26u+Pgt7K4AaK6B':\n",
      "  Metadata:\n",
      "    major_brand     : isom\n",
      "    minor_version   : 512\n",
      "    compatible_brands: isomiso2avc1mp41\n",
      "    encoder         : Lavf59.16.100\n",
      "  Duration: 00:00:30.46, start: 0.000000, bitrate: 1317 kb/s\n",
      "  Stream #0:0[0x1](und): Video: h264 (Baseline) (avc1 / 0x31637661), yuv420p(progressive), 720x480, 1314 kb/s, 30.04 fps, 60 tbr, 90k tbn (default)\n",
      "      Metadata:\n",
      "        handler_name    : VideoHandler\n",
      "        vendor_id       : [0][0][0][0]\n",
      "Stream mapping:\n",
      "  Stream #0:0 -> #0:0 (copy)\n",
      "Output #0, mp4, to 'C:\\Users\\Administrator\\Downloads\\cctv_videos\\L933065.mp4':\n",
      "  Metadata:\n",
      "    major_brand     : isom\n",
      "    minor_version   : 512\n",
      "    compatible_brands: isomiso2avc1mp41\n",
      "    encoder         : Lavf61.7.100\n",
      "  Stream #0:0(und): Video: h264 (Baseline) (avc1 / 0x31637661), yuv420p(progressive), 720x480, q=2-31, 1314 kb/s, 30.04 fps, 60 tbr, 90k tbn (default)\n",
      "      Metadata:\n",
      "        handler_name    : VideoHandler\n",
      "        vendor_id       : [0][0][0][0]\n",
      "Press [q] to stop, [?] for help\n",
      "[out#0/mp4 @ 0000025243905280] video:1654KiB audio:0KiB subtitle:0KiB other streams:0KiB global headers:0KiB muxing overhead: 0.248160%\n",
      "frame=  301 fps=0.0 q=-1.0 Lsize=    1658KiB time=00:00:10.13 bitrate=1339.5kbits/s speed=84.2x    \n",
      "\n",
      "[SUCCESS] 저장 완료: C:\\Users\\Administrator\\Downloads\\cctv_videos\\L933065.mp4\n",
      "[INFO] 접속 중: L933075\n",
      "[INFO] 다운로드 시작: https://cctvsec.ktict.co.kr/9967/bQD0iEcxnOWtskuKmZ130fECVMdldrnf942eXZwcs1bmvU2/x+g4pqnXqu7Hr5JZ\n",
      "[DEBUG] FFmpeg 출력: \n",
      "[DEBUG] FFmpeg 에러: ffmpeg version 7.1.1-essentials_build-www.gyan.dev Copyright (c) 2000-2025 the FFmpeg developers\n",
      "  built with gcc 14.2.0 (Rev1, Built by MSYS2 project)\n",
      "  configuration: --enable-gpl --enable-version3 --enable-static --disable-w32threads --disable-autodetect --enable-fontconfig --enable-iconv --enable-gnutls --enable-libxml2 --enable-gmp --enable-bzlib --enable-lzma --enable-zlib --enable-libsrt --enable-libssh --enable-libzmq --enable-avisynth --enable-sdl2 --enable-libwebp --enable-libx264 --enable-libx265 --enable-libxvid --enable-libaom --enable-libopenjpeg --enable-libvpx --enable-mediafoundation --enable-libass --enable-libfreetype --enable-libfribidi --enable-libharfbuzz --enable-libvidstab --enable-libvmaf --enable-libzimg --enable-amf --enable-cuda-llvm --enable-cuvid --enable-dxva2 --enable-d3d11va --enable-d3d12va --enable-ffnvcodec --enable-libvpl --enable-nvdec --enable-nvenc --enable-vaapi --enable-libgme --enable-libopenmpt --enable-libopencore-amrwb --enable-libmp3lame --enable-libtheora --enable-libvo-amrwbenc --enable-libgsm --enable-libopencore-amrnb --enable-libopus --enable-libspeex --enable-libvorbis --enable-librubberband\n",
      "  libavutil      59. 39.100 / 59. 39.100\n",
      "  libavcodec     61. 19.101 / 61. 19.101\n",
      "  libavformat    61.  7.100 / 61.  7.100\n",
      "  libavdevice    61.  3.100 / 61.  3.100\n",
      "  libavfilter    10.  4.100 / 10.  4.100\n",
      "  libswscale      8.  3.100 /  8.  3.100\n",
      "  libswresample   5.  3.100 /  5.  3.100\n",
      "  libpostproc    58.  3.100 / 58.  3.100\n",
      "Input #0, mov,mp4,m4a,3gp,3g2,mj2, from 'https://cctvsec.ktict.co.kr/9967/bQD0iEcxnOWtskuKmZ130fECVMdldrnf942eXZwcs1bmvU2/x+g4pqnXqu7Hr5JZ':\n",
      "  Metadata:\n",
      "    major_brand     : isom\n",
      "    minor_version   : 512\n",
      "    compatible_brands: isomiso2avc1mp41\n",
      "    encoder         : Lavf59.16.100\n",
      "  Duration: 00:00:30.50, start: 0.000000, bitrate: 1084 kb/s\n",
      "  Stream #0:0[0x1](und): Video: h264 (Constrained Baseline) (avc1 / 0x31637661), yuv420p(tv, smpte170m, progressive), 720x406 [SAR 1:1 DAR 360:203], 1081 kb/s, 29.61 fps, 30 tbr, 90k tbn (default)\n",
      "      Metadata:\n",
      "        handler_name    : VideoHandler\n",
      "        vendor_id       : [0][0][0][0]\n",
      "Stream mapping:\n",
      "  Stream #0:0 -> #0:0 (copy)\n",
      "Output #0, mp4, to 'C:\\Users\\Administrator\\Downloads\\cctv_videos\\L933075.mp4':\n",
      "  Metadata:\n",
      "    major_brand     : isom\n",
      "    minor_version   : 512\n",
      "    compatible_brands: isomiso2avc1mp41\n",
      "    encoder         : Lavf61.7.100\n",
      "  Stream #0:0(und): Video: h264 (Constrained Baseline) (avc1 / 0x31637661), yuv420p(tv, smpte170m, progressive), 720x406 [SAR 1:1 DAR 360:203], q=2-31, 1081 kb/s, 29.61 fps, 30 tbr, 90k tbn (default)\n",
      "      Metadata:\n",
      "        handler_name    : VideoHandler\n",
      "        vendor_id       : [0][0][0][0]\n",
      "Press [q] to stop, [?] for help\n",
      "[out#0/mp4 @ 00000178dd625280] video:1162KiB audio:0KiB subtitle:0KiB other streams:0KiB global headers:0KiB muxing overhead: 0.301168%\n",
      "frame=  288 fps=0.0 q=-1.0 Lsize=    1165KiB time=00:00:10.06 bitrate= 948.2kbits/s speed=46.1x    \n",
      "\n",
      "[SUCCESS] 저장 완료: C:\\Users\\Administrator\\Downloads\\cctv_videos\\L933075.mp4\n",
      "[INFO] 접속 중: L933099\n"
     ]
    }
   ],
   "source": [
    "import os\n",
    "import time\n",
    "import pandas as pd\n",
    "import subprocess\n",
    "from urllib.parse import quote\n",
    "from seleniumwire import webdriver  # selenium-wire 사용\n",
    "from selenium.webdriver.chrome.service import Service\n",
    "from selenium.webdriver.common.by import By\n",
    "from selenium.webdriver.chrome.options import Options\n",
    "from selenium.webdriver.support.ui import WebDriverWait\n",
    "from selenium.webdriver.support import expected_conditions as EC\n",
    "\n",
    "# API Key\n",
    "API_KEY = \"API키\"\n",
    "\n",
    "# 엑셀 경로 및 저장 폴더\n",
    "excel_path = r\"C:/Users/Administrator/Downloads/OpenDataCCTV.xlsx\"\n",
    "save_dir = os.path.join(os.getcwd(), \"cctv_videos\")\n",
    "os.makedirs(save_dir, exist_ok=True)\n",
    "\n",
    "# 엑셀 확인\n",
    "if not os.path.exists(excel_path):\n",
    "    raise FileNotFoundError(f\"엑셀 파일을 찾을 수 없습니다: {excel_path}\")\n",
    "\n",
    "df = pd.read_excel(excel_path)\n",
    "\n",
    "# 크롬 옵션 설정\n",
    "options = Options()\n",
    "options.add_argument(\"--mute-audio\")\n",
    "options.add_argument(\"--disable-gpu\")\n",
    "# options.add_argument(\"--headless\")  # 필요 시 사용\n",
    "\n",
    "driver = webdriver.Chrome(service=Service(), options=options)\n",
    "wait = WebDriverWait(driver, 10)\n",
    "\n",
    "# FFmpeg 경로 확인\n",
    "ffmpeg_path = \"ffmpeg\"\n",
    "if not subprocess.run([ffmpeg_path, \"-version\"], stdout=subprocess.PIPE, stderr=subprocess.PIPE).returncode == 0:\n",
    "    raise FileNotFoundError(\"FFmpeg이 설치되지 않았거나 경로가 잘못되었습니다.\")\n",
    "\n",
    "# 반복 처리\n",
    "for idx, row in df.iterrows():\n",
    "    try:\n",
    "        cctvid = row[\"CCTVID\"]\n",
    "        cctvname = row.get(\"CCTVNAME\", \"\")\n",
    "        encoded_name = quote(cctvname)\n",
    "\n",
    "        url = f\"https://www.utic.go.kr/jsp/map/openDataCctvStream.jsp?key={API_KEY}&cctvid={cctvid}&cctvName={encoded_name}&kind=KB\"\n",
    "\n",
    "        print(f\"[INFO] 접속 중: {cctvid}\")\n",
    "        driver.get(url)\n",
    "        time.sleep(5)  # 로딩 대기\n",
    "\n",
    "        # <source src=\"...mp4\"> 추출\n",
    "        source_element = driver.find_element(By.TAG_NAME, \"source\")\n",
    "        video_url = source_element.get_attribute(\"src\")\n",
    "\n",
    "        if not video_url:\n",
    "            print(f\"[WARN] mp4 링크 없음: {cctvid}\")\n",
    "            continue\n",
    "\n",
    "        if video_url.startswith(\"//\"):\n",
    "            video_url = \"https:\" + video_url  # 프로토콜 보완\n",
    "\n",
    "        output_path = os.path.join(save_dir, f\"{cctvid}.mp4\")\n",
    "        print(f\"[INFO] 다운로드 시작: {video_url}\")\n",
    "\n",
    "        # FFmpeg로 10초 저장 (원하면 -t 값 조절)\n",
    "        ffmpeg_cmd = [\n",
    "            ffmpeg_path, \"-y\",\n",
    "            \"-i\", video_url,\n",
    "            \"-t\", \"10\",\n",
    "            \"-c\", \"copy\",\n",
    "            output_path\n",
    "        ]\n",
    "\n",
    "        result = subprocess.run(ffmpeg_cmd, stdout=subprocess.PIPE, stderr=subprocess.PIPE)\n",
    "        print(f\"[DEBUG] FFmpeg 출력: {result.stdout.decode()}\")\n",
    "        print(f\"[DEBUG] FFmpeg 에러: {result.stderr.decode()}\")\n",
    "\n",
    "        if os.path.exists(output_path):\n",
    "            print(f\"[SUCCESS] 저장 완료: {output_path}\")\n",
    "        else:\n",
    "            print(f\"[ERROR] 저장 실패: {output_path}\")\n",
    "\n",
    "    except Exception as e:\n",
    "        print(f\"[ERROR] {cctvid} 처리 실패: {e}\")\n",
    "\n",
    "driver.quit()"
   ]
  },
  {
   "cell_type": "code",
   "execution_count": null,
   "id": "7fcd9574-2267-4f84-8376-e5b363034002",
   "metadata": {},
   "outputs": [],
   "source": []
  },
  {
   "cell_type": "code",
   "execution_count": null,
   "id": "3946dff5-684f-4447-b5db-9ec7db29506d",
   "metadata": {},
   "outputs": [],
   "source": []
  }
 ],
 "metadata": {
  "kernelspec": {
   "display_name": "Python 3 (ipykernel)",
   "language": "python",
   "name": "python3"
  },
  "language_info": {
   "codemirror_mode": {
    "name": "ipython",
    "version": 3
   },
   "file_extension": ".py",
   "mimetype": "text/x-python",
   "name": "python",
   "nbconvert_exporter": "python",
   "pygments_lexer": "ipython3",
   "version": "3.13.3"
  }
 },
 "nbformat": 4,
 "nbformat_minor": 5
}
